<svg width="226" height="48" viewBox="0 0 226 48" fill="none" xmlns="http://www.w3.org/2000/svg">
<g filter="url(#filter0_d_21_35)">
<rect x="2" y="1" width="222" height="44" rx="6" fill="#292927"/>
<path d="M99.2998 24.35C99.0375 24.3489 98.7861 24.2448 98.5998 24.06C98.4136 23.8726 98.309 23.6192 98.309 23.355C98.309 23.0908 98.4136 22.8374 98.5998 22.65L100.72 20.53C100.906 20.3443 101.053 20.1237 101.154 19.8809C101.255 19.6381 101.306 19.3778 101.306 19.115C101.306 18.8522 101.255 18.5919 101.154 18.3491C101.053 18.1063 100.906 17.8858 100.72 17.7L99.2998 16.28C98.9174 15.9185 98.4111 15.7171 97.8848 15.7171C97.3586 15.7171 96.8523 15.9185 96.4698 16.28L94.3498 18.4C94.1582 18.5534 93.9167 18.6309 93.6716 18.6177C93.4265 18.6046 93.1947 18.5018 93.0205 18.3288C92.8463 18.1558 92.7418 17.9248 92.7269 17.6798C92.7121 17.4347 92.7878 17.1928 92.9398 17L95.0598 14.88C95.8224 14.1525 96.8359 13.7467 97.8898 13.7467C98.9438 13.7467 99.9572 14.1525 100.72 14.88L102.13 16.29C102.502 16.6615 102.797 17.1027 102.998 17.5882C103.199 18.0738 103.303 18.5943 103.303 19.12C103.303 19.6457 103.199 20.1662 102.998 20.6518C102.797 21.1374 102.502 21.5785 102.13 21.95L99.9998 24.06C99.8136 24.2448 99.5622 24.3489 99.2998 24.35V24.35Z" fill="white"/>
<path d="M90.1099 32.3C89.5845 32.3004 89.0641 32.1973 88.5785 31.9965C88.0929 31.7958 87.6517 31.5013 87.2799 31.13L85.8699 29.72C85.498 29.3485 85.203 28.9073 85.0017 28.4218C84.8004 27.9362 84.6968 27.4157 84.6968 26.89C84.6968 26.3643 84.8004 25.8438 85.0017 25.3582C85.203 24.8726 85.498 24.4315 85.8699 24.06L87.9999 21.94C88.1927 21.788 88.4347 21.7122 88.6797 21.7271C88.9247 21.742 89.1557 21.8465 89.3287 22.0207C89.5017 22.1949 89.6045 22.4266 89.6177 22.6718C89.6308 22.9169 89.5533 23.1583 89.3999 23.35L87.2799 25.47C87.094 25.6557 86.9465 25.8763 86.8458 26.1191C86.7452 26.3619 86.6934 26.6222 86.6934 26.885C86.6934 27.1478 86.7452 27.4081 86.8458 27.6509C86.9465 27.8937 87.094 28.1142 87.2799 28.3L88.6999 29.72C89.0824 30.0815 89.5887 30.2829 90.1149 30.2829C90.6412 30.2829 91.1475 30.0815 91.5299 29.72L93.6499 27.6C93.7372 27.4893 93.8469 27.3983 93.9717 27.333C94.0966 27.2677 94.2339 27.2295 94.3746 27.221C94.5153 27.2125 94.6561 27.2338 94.788 27.2835C94.9199 27.3332 95.0398 27.4102 95.1398 27.5095C95.2398 27.6088 95.3177 27.7282 95.3683 27.8597C95.419 27.9912 95.4413 28.1319 95.4338 28.2727C95.4262 28.4134 95.389 28.5509 95.3246 28.6763C95.2602 28.8016 95.17 28.9119 95.0599 29L92.9399 31.12C92.569 31.4931 92.1281 31.7894 91.6425 31.9919C91.1569 32.1944 90.6361 32.2991 90.1099 32.3Z" fill="white"/>
<path d="M90.8198 27.18C90.6882 27.1808 90.5577 27.1555 90.4359 27.1058C90.314 27.056 90.2032 26.9827 90.1098 26.89C90.016 26.797 89.9416 26.6864 89.8909 26.5646C89.8401 26.4427 89.814 26.312 89.814 26.18C89.814 26.048 89.8401 25.9173 89.8909 25.7954C89.9416 25.6736 90.016 25.563 90.1098 25.47L96.4798 19.11C96.6671 18.9238 96.9206 18.8192 97.1848 18.8192C97.4489 18.8192 97.7024 18.9238 97.8898 19.11C97.9835 19.203 98.0579 19.3136 98.1087 19.4354C98.1594 19.5573 98.1856 19.688 98.1856 19.82C98.1856 19.952 98.1594 20.0827 98.1087 20.2046C98.0579 20.3264 97.9835 20.437 97.8898 20.53L91.5198 26.89C91.3335 27.0748 91.0821 27.1789 90.8198 27.18Z" fill="white"/>
<path d="M58.322 20.3529V19.6257C58.5114 19.5401 58.7639 19.4545 59.0795 19.369C59.3952 19.2692 59.7298 19.1836 60.0833 19.1123C60.4369 19.041 60.7841 18.984 61.125 18.9412C61.4785 18.8841 61.7879 18.8556 62.053 18.8556L62.3939 19.1123L60.6894 28.3316H62.0152V29.0588C61.851 29.1872 61.6553 29.3084 61.428 29.4225C61.2134 29.5365 60.9798 29.6364 60.7273 29.7219C60.4874 29.8075 60.2412 29.8717 59.9886 29.9144C59.7361 29.9715 59.4962 30 59.2689 30C58.7891 30 58.4545 29.9002 58.2652 29.7005C58.0884 29.4866 58 29.2585 58 29.016C58 28.7308 58.0189 28.4528 58.0568 28.1818C58.0947 27.9109 58.1452 27.6114 58.2083 27.2834L59.4962 20.6524L58.322 20.3529ZM59.8939 15.5401C59.8939 15.0553 60.0391 14.6774 60.3295 14.4064C60.6199 14.1355 60.9861 14 61.428 14C61.9078 14 62.2866 14.1355 62.5644 14.4064C62.8548 14.6774 63 15.0553 63 15.5401C63 15.9964 62.8548 16.3601 62.5644 16.631C62.2866 16.902 61.9078 17.0374 61.428 17.0374C60.9861 17.0374 60.6199 16.902 60.3295 16.631C60.0391 16.3601 59.8939 15.9964 59.8939 15.5401Z" fill="white"/>
<path d="M25.4 30V29.24C25.6533 29.0933 25.92 28.9667 26.2 28.86C26.4933 28.7533 26.7733 28.6867 27.04 28.66V17.34C26.7733 17.2867 26.4933 17.2133 26.2 17.12C25.9067 17.0133 25.64 16.8933 25.4 16.76V16H28.62C29.1267 16 29.6067 15.98 30.06 15.94C30.5133 15.9 31.0333 15.88 31.62 15.88C32.26 15.88 32.88 15.9267 33.48 16.02C34.08 16.1133 34.6133 16.28 35.08 16.52C35.5467 16.76 35.92 17.1 36.2 17.54C36.48 17.9667 36.62 18.52 36.62 19.2C36.62 19.6267 36.54 20.0267 36.38 20.4C36.2333 20.76 36.02 21.08 35.74 21.36C35.4733 21.64 35.1533 21.8733 34.78 22.06C34.42 22.2467 34.0267 22.38 33.6 22.46V22.54C34.0267 22.5933 34.4533 22.6933 34.88 22.84C35.32 22.9867 35.7133 23.2 36.06 23.48C36.4067 23.76 36.6867 24.1133 36.9 24.54C37.1267 24.9533 37.24 25.4467 37.24 26.02C37.24 26.74 37.08 27.36 36.76 27.88C36.44 28.4 36.0067 28.8267 35.46 29.16C34.9267 29.4933 34.3133 29.74 33.62 29.9C32.9267 30.0467 32.2067 30.12 31.46 30.12C31.18 30.12 30.8733 30.1133 30.54 30.1C30.2067 30.0867 29.8733 30.0733 29.54 30.06C29.2067 30.0467 28.88 30.0333 28.56 30.02C28.2533 30.0067 27.9933 30 27.78 30H25.4ZM31.44 28.82C32.28 28.82 32.94 28.5733 33.42 28.08C33.9 27.5733 34.14 26.9067 34.14 26.08C34.14 25.5733 34.06 25.16 33.9 24.84C33.74 24.5067 33.52 24.2467 33.24 24.06C32.96 23.86 32.6267 23.7267 32.24 23.66C31.8533 23.58 31.4333 23.54 30.98 23.54H29.92V28.68C30.1067 28.72 30.3 28.7533 30.5 28.78C30.7133 28.8067 31.0267 28.82 31.44 28.82ZM30.56 22.24C30.7867 22.24 31.0133 22.2333 31.24 22.22C31.4667 22.1933 31.68 22.1667 31.88 22.14C32.4 21.9267 32.82 21.6 33.14 21.16C33.46 20.7067 33.62 20.1933 33.62 19.62C33.62 18.78 33.4 18.1667 32.96 17.78C32.52 17.38 31.9533 17.18 31.26 17.18C30.9667 17.18 30.7133 17.1867 30.5 17.2C30.2867 17.2133 30.0933 17.2333 29.92 17.26V22.24H30.56Z" fill="white"/>
<path d="M137.147 31.25H137.397V31V29.72V29.47H137.147H135.034V16.53H138.78L139.099 16.8798V19.7314V19.9814H139.349H141H141.25V19.7314V15V14.75H141H126H125.75V15V19.7314V19.9814H126H127.651H127.901V19.7314V16.8798L128.22 16.53H131.966V29.47H129.853H129.603V29.72V31V31.25H129.853H137.147Z" fill="white" fill-opacity="0.15" stroke="white" stroke-width="0.5"/>
<path d="M170.147 31.25H170.397V31V29.72V29.47H170.147H168.034V16.53H171.78L172.099 16.8798V19.7314V19.9814H172.349H174H174.25V19.7314V15V14.75H174H159H158.75V15V19.7314V19.9814H159H160.651H160.901V19.7314V16.8798L161.22 16.53H164.966V29.47H162.853H162.603V29.72V31V31.25H162.853H170.147Z" fill="white" fill-opacity="0.15" stroke="white" stroke-width="0.5"/>
<path d="M165.736 28V19H167.264V28H165.736ZM162 24.2636V22.7364H171V24.2636H162Z" fill="white"/>
<path d="M129 24.603V23.0757H138V24.603H129Z" fill="white"/>
<path d="M205.077 18.6788C204.187 18.9221 203.502 19.2871 203.023 19.7737C202.567 20.236 202.361 20.7956 202.407 21.4526C202.703 21.8418 203.069 22.1582 203.502 22.4015C203.959 22.6204 204.438 22.8151 204.94 22.9854C205.054 23.4234 205.066 23.8735 204.974 24.3358C204.906 24.7737 204.757 25.1873 204.529 25.5766C204.301 25.9416 204.027 26.2579 203.708 26.5255C203.411 26.7932 203.103 26.9513 202.783 27C202.304 26.9757 201.836 26.8783 201.38 26.708C200.923 26.5134 200.524 26.2457 200.182 25.9051C199.839 25.5645 199.554 25.163 199.326 24.7007C199.12 24.2141 199.018 23.6667 199.018 23.0584C199.018 22.3285 199.155 21.635 199.429 20.9781C199.702 20.2968 200.079 19.6886 200.558 19.1533C201.06 18.618 201.654 18.1679 202.338 17.8029C203.023 17.4136 203.776 17.146 204.598 17L205.077 18.6788ZM198.059 18.6788C197.169 18.9221 196.484 19.2871 196.005 19.7737C195.549 20.236 195.343 20.7956 195.389 21.4526C195.686 21.8418 196.051 22.1582 196.484 22.4015C196.941 22.6204 197.42 22.8151 197.922 22.9854C198.036 23.4234 198.048 23.8735 197.957 24.3358C197.888 24.7737 197.74 25.1873 197.511 25.5766C197.283 25.9416 197.009 26.2579 196.69 26.5255C196.393 26.7932 196.085 26.9513 195.766 27C195.286 26.9757 194.818 26.8783 194.362 26.708C193.906 26.5134 193.506 26.2457 193.164 25.9051C192.822 25.5645 192.536 25.163 192.308 24.7007C192.103 24.2141 192 23.6667 192 23.0584C192 22.3285 192.137 21.635 192.411 20.9781C192.685 20.2968 193.061 19.6886 193.54 19.1533C194.043 18.618 194.636 18.1679 195.321 17.8029C196.005 17.4136 196.758 17.146 197.58 17L198.059 18.6788Z" fill="white"/>
</g>
<defs>
<filter id="filter0_d_21_35" x="0" y="0" width="226" height="48" filterUnits="userSpaceOnUse" color-interpolation-filters="sRGB">
<feFlood flood-opacity="0" result="BackgroundImageFix"/>
<feColorMatrix in="SourceAlpha" type="matrix" values="0 0 0 0 0 0 0 0 0 0 0 0 0 0 0 0 0 0 127 0" result="hardAlpha"/>
<feOffset dy="1"/>
<feGaussianBlur stdDeviation="1"/>
<feComposite in2="hardAlpha" operator="out"/>
<feColorMatrix type="matrix" values="0 0 0 0 0 0 0 0 0 0 0 0 0 0 0 0 0 0 0.5 0"/>
<feBlend mode="normal" in2="BackgroundImageFix" result="effect1_dropShadow_21_35"/>
<feBlend mode="normal" in="SourceGraphic" in2="effect1_dropShadow_21_35" result="shape"/>
</filter>
</defs>
</svg>
