<svg width="24" height="24" viewBox="0 0 24 24" fill="none" xmlns="http://www.w3.org/2000/svg">
<path d="M17.2998 13.35C17.0375 13.3489 16.7861 13.2448 16.5998 13.06C16.4136 12.8726 16.309 12.6192 16.309 12.355C16.309 12.0908 16.4136 11.8374 16.5998 11.65L18.7198 9.53001C18.9058 9.34426 19.0533 9.12368 19.154 8.88089C19.2546 8.63809 19.3064 8.37784 19.3064 8.11501C19.3064 7.85218 19.2546 7.59192 19.154 7.34913C19.0533 7.10633 18.9058 6.88575 18.7198 6.70001L17.2998 5.28001C16.9174 4.91853 16.4111 4.71713 15.8848 4.71713C15.3586 4.71713 14.8523 4.91853 14.4698 5.28001L12.3498 7.40001C12.1582 7.55338 11.9167 7.63088 11.6716 7.61775C11.4265 7.60461 11.1947 7.50177 11.0205 7.3288C10.8463 7.15583 10.7418 6.92482 10.7269 6.67978C10.7121 6.43474 10.7878 6.19278 10.9398 6.00001L13.0598 3.88001C13.8224 3.15254 14.8359 2.74667 15.8898 2.74667C16.9438 2.74667 17.9572 3.15254 18.7198 3.88001L20.1298 5.29001C20.5017 5.6615 20.7968 6.10266 20.9981 6.58825C21.1994 7.07384 21.303 7.59435 21.303 8.12001C21.303 8.64567 21.1994 9.16618 20.9981 9.65177C20.7968 10.1374 20.5017 10.5785 20.1298 10.95L17.9998 13.06C17.8136 13.2448 17.5622 13.3489 17.2998 13.35Z" fill="white"/>
<path d="M8.10992 21.3C7.58448 21.3004 7.06411 21.1973 6.57853 20.9965C6.09294 20.7958 5.65167 20.5013 5.27992 20.13L3.86992 18.72C3.49802 18.3485 3.20298 17.9073 3.00169 17.4218C2.80039 16.9362 2.69678 16.4157 2.69678 15.89C2.69678 15.3643 2.80039 14.8438 3.00169 14.3582C3.20298 13.8726 3.49802 13.4315 3.86992 13.06L5.99992 10.94C6.1927 10.788 6.43465 10.7122 6.67969 10.7271C6.92473 10.742 7.15574 10.8465 7.32871 11.0207C7.50168 11.1949 7.60453 11.4266 7.61766 11.6718C7.63079 11.9169 7.55329 12.1583 7.39992 12.35L5.27992 14.47C5.09397 14.6557 4.94645 14.8763 4.8458 15.1191C4.74516 15.3619 4.69335 15.6222 4.69335 15.885C4.69335 16.1478 4.74516 16.4081 4.8458 16.6509C4.94645 16.8937 5.09397 17.1142 5.27992 17.3L6.69992 18.72C7.08238 19.0815 7.58867 19.2829 8.11492 19.2829C8.64117 19.2829 9.14747 19.0815 9.52992 18.72L11.6499 16.6C11.7372 16.4893 11.8469 16.3983 11.9717 16.333C12.0966 16.2677 12.2339 16.2295 12.3746 16.221C12.5153 16.2125 12.6561 16.2338 12.788 16.2835C12.9199 16.3332 13.0398 16.4102 13.1398 16.5095C13.2398 16.6088 13.3177 16.7282 13.3683 16.8597C13.419 16.9912 13.4413 17.1319 13.4338 17.2727C13.4262 17.4134 13.389 17.5509 13.3246 17.6763C13.2602 17.8016 13.17 17.9119 13.0599 18L10.9399 20.12C10.569 20.4931 10.1281 20.7894 9.64248 20.9919C9.15686 21.1944 8.63606 21.2991 8.10992 21.3Z" fill="white"/>
<path d="M8.81976 16.18C8.68816 16.1808 8.55769 16.1555 8.43586 16.1058C8.31402 16.056 8.2032 15.9827 8.10976 15.89C8.01603 15.797 7.94164 15.6864 7.89087 15.5646C7.8401 15.4427 7.81396 15.312 7.81396 15.18C7.81396 15.048 7.8401 14.9173 7.89087 14.7954C7.94164 14.6736 8.01603 14.563 8.10976 14.47L14.4798 8.11001C14.6671 7.92376 14.9206 7.81921 15.1848 7.81921C15.4489 7.81921 15.7024 7.92376 15.8898 8.11001C15.9835 8.20297 16.0579 8.31357 16.1087 8.43543C16.1594 8.55729 16.1856 8.68799 16.1856 8.82001C16.1856 8.95202 16.1594 9.08272 16.1087 9.20458C16.0579 9.32644 15.9835 9.43704 15.8898 9.53001L9.51976 15.89C9.3335 16.0748 9.0821 16.1789 8.81976 16.18Z" fill="white"/>
</svg>
