<svg width="13" height="16" viewBox="0 0 13 16" fill="none" xmlns="http://www.w3.org/2000/svg">
<path d="M0.4 15V14.24C0.653333 14.0933 0.92 13.9667 1.2 13.86C1.49333 13.7533 1.77333 13.6867 2.04 13.66V2.34C1.77333 2.28667 1.49333 2.21333 1.2 2.12C0.906667 2.01333 0.64 1.89333 0.4 1.76V0.999999H3.62C4.12667 0.999999 4.60667 0.979999 5.06 0.94C5.51333 0.9 6.03333 0.879999 6.62 0.879999C7.26 0.879999 7.88 0.926666 8.48 1.02C9.08 1.11333 9.61333 1.28 10.08 1.52C10.5467 1.76 10.92 2.1 11.2 2.54C11.48 2.96667 11.62 3.52 11.62 4.2C11.62 4.62667 11.54 5.02667 11.38 5.4C11.2333 5.76 11.02 6.08 10.74 6.36C10.4733 6.64 10.1533 6.87333 9.78 7.06C9.42 7.24667 9.02667 7.38 8.6 7.46V7.54C9.02667 7.59333 9.45333 7.69333 9.88 7.84C10.32 7.98667 10.7133 8.2 11.06 8.48C11.4067 8.76 11.6867 9.11333 11.9 9.54C12.1267 9.95333 12.24 10.4467 12.24 11.02C12.24 11.74 12.08 12.36 11.76 12.88C11.44 13.4 11.0067 13.8267 10.46 14.16C9.92667 14.4933 9.31333 14.74 8.62 14.9C7.92667 15.0467 7.20667 15.12 6.46 15.12C6.18 15.12 5.87333 15.1133 5.54 15.1C5.20667 15.0867 4.87333 15.0733 4.54 15.06C4.20667 15.0467 3.88 15.0333 3.56 15.02C3.25333 15.0067 2.99333 15 2.78 15H0.4ZM6.44 13.82C7.28 13.82 7.94 13.5733 8.42 13.08C8.9 12.5733 9.14 11.9067 9.14 11.08C9.14 10.5733 9.06 10.16 8.9 9.84C8.74 9.50667 8.52 9.24667 8.24 9.06C7.96 8.86 7.62667 8.72667 7.24 8.66C6.85333 8.58 6.43333 8.54 5.98 8.54H4.92V13.68C5.10667 13.72 5.3 13.7533 5.5 13.78C5.71333 13.8067 6.02667 13.82 6.44 13.82ZM5.56 7.24C5.78667 7.24 6.01333 7.23333 6.24 7.22C6.46667 7.19333 6.68 7.16667 6.88 7.14C7.4 6.92667 7.82 6.6 8.14 6.16C8.46 5.70667 8.62 5.19333 8.62 4.62C8.62 3.78 8.4 3.16667 7.96 2.78C7.52 2.38 6.95333 2.18 6.26 2.18C5.96667 2.18 5.71333 2.18667 5.5 2.2C5.28667 2.21333 5.09333 2.23333 4.92 2.26V7.24H5.56Z" fill="white"/>
</svg>
