<svg width="5" height="16" viewBox="0 0 5 16" fill="none" xmlns="http://www.w3.org/2000/svg">
<path d="M0.32197 6.35294V5.62567C0.511364 5.54011 0.763889 5.45455 1.07955 5.36898C1.3952 5.26916 1.7298 5.1836 2.08333 5.1123C2.43687 5.041 2.78409 4.98396 3.125 4.94118C3.47854 4.88414 3.78788 4.85562 4.05303 4.85562L4.39394 5.1123L2.68939 14.3316H4.01515V15.0588C3.85101 15.1872 3.6553 15.3084 3.42803 15.4225C3.21338 15.5365 2.9798 15.6364 2.72727 15.7219C2.48737 15.8075 2.24116 15.8717 1.98864 15.9144C1.73611 15.9715 1.49621 16 1.26894 16C0.789141 16 0.454545 15.9002 0.265151 15.7005C0.0883838 15.4866 0 15.2585 0 15.016C0 14.7308 0.0189393 14.4528 0.0568181 14.1818C0.0946969 13.9109 0.145202 13.6114 0.208333 13.2834L1.49621 6.65241L0.32197 6.35294ZM1.89394 1.54011C1.89394 1.05526 2.03914 0.677361 2.32955 0.406417C2.61995 0.135472 2.98611 0 3.42803 0C3.90783 0 4.28662 0.135472 4.56439 0.406417C4.8548 0.677361 5 1.05526 5 1.54011C5 1.99643 4.8548 2.36007 4.56439 2.63102C4.28662 2.90196 3.90783 3.03743 3.42803 3.03743C2.98611 3.03743 2.61995 2.90196 2.32955 2.63102C2.03914 2.36007 1.89394 1.99643 1.89394 1.54011Z" fill="white"/>
</svg>
