<svg width="291" height="119" viewBox="0 0 291 119" fill="none" xmlns="http://www.w3.org/2000/svg">
<path d="M50.5754 114.046V105.115C50.5754 103.32 50.5072 101.525 50.3027 98.843L50.7799 98.7521L56.3021 114.046H66.8237L72.3686 98.7521L72.8231 98.843C72.5959 101.525 72.5504 103.32 72.5504 105.115V114.046H86.1854V82.231H69.2099L65.3694 91.5255C64.0286 94.7525 63.0514 97.2522 61.8924 101.229H61.4152C60.2562 97.2522 59.3018 94.7752 57.9383 91.5255L54.0296 82.231H36.9404V114.046H50.5754Z" fill="white"/>
<path d="M121.352 114.046V105.865H104.172V101.82H119.966V94.3207H104.172V90.412H120.897V82.231H90.0823V114.046H121.352Z" fill="white"/>
<path d="M137.066 119V114.046H152.019V119H165.426V104.956H161.904V82.231H128.589C128.135 96.7068 128.067 100.411 126.09 104.956H123.658V119H137.066ZM139.565 104.32C140.861 101.297 141.315 97.184 141.77 91.321H147.815V104.956H139.793L139.565 104.32Z" fill="white"/>
<path d="M182.981 114.046L188.753 104.706C190.048 102.615 191.048 100.865 192.116 98.4794L192.571 98.6384C192.321 101.161 192.207 103.024 192.207 104.979V114.046H206.297V82.231H191.866L185.822 91.9346C184.731 93.6844 183.935 94.9797 182.686 97.4795L182.208 97.3204C182.481 94.9343 182.595 93.0935 182.595 91.0938V82.231H168.505V114.046H182.981Z" fill="white"/>
<path d="M222.397 114.046L223.283 110.819H232.214L233.1 114.046H247.644L236.441 82.231H219.784L208.603 114.046H222.397ZM226.283 98.6157C226.874 96.0478 227.192 94.4798 227.556 92.0028H228.01C228.374 94.4798 228.669 96.0478 229.26 98.5475L230.419 103.524H225.147L226.283 98.6157Z" fill="white"/>
<path d="M7.27199 64.4025L7.22654 33.3148C7.22654 27.2699 7.04474 21.1342 6.63569 13.1805L7.63559 13.135L14.8621 64.4025H22.225L29.7242 13.1805L30.6787 13.2259C30.1787 21.1797 29.9969 27.2699 29.9969 33.3148L29.906 64.4025H37.4962V0.772649H25.9974L21.316 28.8152C20.3161 36.9053 19.7253 42.9956 18.9981 52.4947H18.3163C17.5891 42.9956 16.9528 36.9053 15.9529 28.8152L11.2261 0.772649H0V64.4025H7.27199Z" fill="white"/>
<path d="M63.6172 64.4025V0.772649H55.9361V64.4025H63.6172Z" fill="white"/>
<path d="M100.01 64.4025V58.085H89.7381V0.772649H82.0571V64.4025H100.01Z" fill="white"/>
<path d="M134.675 64.4025V58.085H124.404V0.772649H116.723V64.4025H134.675Z" fill="white"/>
<path d="M159.069 64.4025V0.772649H151.388V64.4025H159.069Z" fill="white"/>
<path d="M189.962 65.1752C198.598 65.1752 202.87 60.1757 202.87 50.2676V14.9076C202.87 4.99949 198.598 0 189.962 0C181.372 0 177.1 4.99949 177.1 14.9076V50.2676C177.1 60.1757 181.372 65.1752 189.962 65.1752ZM190.008 59.1758C186.508 59.1758 184.781 56.4942 184.781 50.9494V14.3622C184.781 8.72638 186.508 5.99939 190.008 5.99939C193.508 5.99939 195.189 8.72638 195.189 14.3622V50.9494C195.189 56.4942 193.508 59.1758 190.008 59.1758Z" fill="white"/>
<path d="M228.355 64.4025L228.309 36.6326C228.309 30.1333 227.764 20.0889 227.219 13.3168L228.173 13.2259C229.128 19.998 229.764 23.7249 230.809 28.8607L238.717 64.4025H248.444V0.772649H240.99L241.035 28.4971C241.035 35.2237 241.581 44.041 242.217 51.4948L241.263 51.5402C240.445 45.7226 239.672 41.2685 238.899 37.3598L230.946 0.772649H220.901V64.4025H228.355Z" fill="white"/>
<path d="M278.155 65.1752C286.018 65.1752 290.29 60.7211 290.29 52.2674C290.29 45.1772 287.291 39.2233 283.155 32.5421L279.064 25.861C274.837 19.089 273.61 14.9985 273.61 10.8625C273.61 7.54469 275.11 5.72669 277.655 5.72669C280.746 5.72669 282.246 7.90829 282.246 13.7259V20.6343L289.381 19.2708V13.4532C289.381 4.18139 285.473 0 277.746 0C270.474 0 266.384 4.04504 266.384 11.9079C266.338 17.9527 268.747 23.0431 272.883 29.8606L276.928 36.6326C281.019 43.4501 282.882 48.2678 282.882 53.1764C282.882 57.176 281.246 59.3576 278.337 59.3576C274.883 59.3576 273.201 56.9033 273.201 50.0404V42.5411L265.838 43.9501V50.2676C265.838 60.6302 270.292 65.1752 278.155 65.1752Z" fill="white"/>
</svg>
