<svg width="130" height="40" viewBox="0 0 130 40" fill="none" xmlns="http://www.w3.org/2000/svg">
<path d="M8.36258 36.9616V31.4841C8.36258 30.383 8.32077 29.282 8.19533 27.6373L8.48802 27.5816L11.8749 36.9616H18.328L21.7288 27.5816L22.0075 27.6373C21.8681 29.282 21.8403 30.383 21.8403 31.4841V36.9616H30.2029V17.4489H19.7914L17.436 23.1494C16.6137 25.1285 16.0143 26.6617 15.3035 29.1008H15.0108C14.3 26.6617 13.7146 25.1425 12.8784 23.1494L10.4811 17.4489H0V36.9616H8.36258Z" fill="black"/>
<path d="M51.7711 36.9616V31.9441H41.2342V29.4632H50.9209V24.8637H41.2342V22.4665H51.4923V17.4489H32.5929V36.9616H51.7711Z" fill="black"/>
<path d="M61.4087 40V36.9616H70.5796V40H78.8028V31.3865H76.6425V17.4489H56.2099C55.9312 26.3272 55.8894 28.599 54.6768 31.3865H53.1855V40H61.4087ZM62.9418 30.9963C63.7362 29.1426 64.015 26.6199 64.2937 23.024H68.0012V31.3865H63.0812L62.9418 30.9963Z" fill="black"/>
<path d="M89.5694 36.9616L93.1095 31.2332C93.904 29.951 94.5172 28.8778 95.1723 27.4143L95.451 27.5119C95.2977 29.059 95.2281 30.2018 95.2281 31.4005V36.9616H103.869V17.4489H95.019L91.3116 23.4003C90.6426 24.4735 90.1547 25.2679 89.3882 26.8011L89.0955 26.7035C89.2627 25.2401 89.3324 24.1111 89.3324 22.8846V17.4489H80.6911V36.9616H89.5694Z" fill="black"/>
<path d="M113.744 36.9616L114.287 34.9825H119.765L120.309 36.9616H129.229L122.357 17.4489H112.141L105.284 36.9616H113.744ZM116.127 27.4979C116.49 25.923 116.685 24.9613 116.908 23.4421H117.187C117.41 24.9613 117.591 25.923 117.953 27.4561L118.664 30.5085H115.43L116.127 27.4979Z" fill="black"/>
<path d="M22.5186 0.113528H24.6837L26.9705 5.69264H27.0678L29.3546 0.113528H31.5197V8.41732H29.8168V3.01256H29.7479L27.5989 8.37677H26.4393L24.2904 2.99228H24.2215V8.41732H22.5186V0.113528Z" fill="black"/>
<path d="M34.2222 0.113528H35.9737V5.33583H36.0427L39.631 0.113528H41.1677V8.41732H39.412V3.19096H39.3512L35.7426 8.41732H34.2222V0.113528Z" fill="black"/>
<path d="M43.4241 8.41732V7.00632L43.6592 6.98605C43.962 6.96172 44.2066 6.84684 44.3931 6.64141C44.5796 6.43327 44.7188 6.10215 44.8107 5.64804C44.9053 5.19122 44.9662 4.57763 44.9932 3.80726L45.1311 0.113528H50.7669V8.41732H49.0599V1.52047H46.761L46.6312 4.41139C46.588 5.34124 46.4772 6.1008 46.2988 6.69006C46.1231 7.27933 45.842 7.71452 45.4554 7.99564C45.0716 8.27676 44.5458 8.41732 43.8782 8.41732H43.4241Z" fill="black"/>
<path d="M53.0203 8.41732V7.00632L53.2555 6.98605C53.5582 6.96172 53.8028 6.84684 53.9893 6.64141C54.1759 6.43327 54.3151 6.10215 54.407 5.64804C54.5016 5.19122 54.5624 4.57763 54.5894 3.80726L54.7273 0.113528H60.3632V8.41732H58.6562V1.52047H56.3572L56.2275 4.41139C56.1842 5.34124 56.0734 6.1008 55.895 6.69006C55.7193 7.27933 55.4382 7.71452 55.0516 7.99564C54.6678 8.27676 54.1421 8.41732 53.4744 8.41732H53.0203Z" fill="black"/>
<path d="M63.0666 0.113528H64.8182V5.33583H64.8871L68.4754 0.113528H70.0121V8.41732H68.2565V3.19096H68.1956L64.5871 8.41732H63.0666V0.113528Z" fill="black"/>
<path d="M80.3493 4.26542C80.3493 5.17095 80.1776 5.94132 79.8344 6.57654C79.4938 7.21175 79.0289 7.69695 78.4396 8.03213C77.853 8.36461 77.1935 8.53085 76.4609 8.53085C75.723 8.53085 75.0608 8.36326 74.4742 8.02808C73.8876 7.6929 73.4241 7.2077 73.0835 6.57248C72.7429 5.93726 72.5726 5.16824 72.5726 4.26542C72.5726 3.3599 72.7429 2.58953 73.0835 1.95431C73.4241 1.31909 73.8876 0.835245 74.4742 0.502769C75.0608 0.16759 75.723 0 76.4609 0C77.1935 0 77.853 0.16759 78.4396 0.502769C79.0289 0.835245 79.4938 1.31909 79.8344 1.95431C80.1776 2.58953 80.3493 3.3599 80.3493 4.26542ZM78.5693 4.26542C78.5693 3.67886 78.4815 3.1842 78.3058 2.78145C78.1328 2.37869 77.8882 2.07324 77.5719 1.86511C77.2556 1.65697 76.8853 1.55291 76.4609 1.55291C76.0366 1.55291 75.6662 1.65697 75.35 1.86511C75.0337 2.07324 74.7878 2.37869 74.6121 2.78145C74.4391 3.1842 74.3526 3.67886 74.3526 4.26542C74.3526 4.85199 74.4391 5.34665 74.6121 5.7494C74.7878 6.15216 75.0337 6.4576 75.35 6.66574C75.6662 6.87387 76.0366 6.97794 76.4609 6.97794C76.8853 6.97794 77.2556 6.87387 77.5719 6.66574C77.8882 6.4576 78.1328 6.15216 78.3058 5.7494C78.4815 5.34665 78.5693 4.85199 78.5693 4.26542Z" fill="black"/>
<path d="M82.9058 8.41732V0.113528H84.6614V3.53965H88.2254V0.113528H89.9769V8.41732H88.2254V4.98714H84.6614V8.41732H82.9058Z" fill="black"/>
<path d="M92.6804 8.41732V0.113528H98.2757V1.56101H94.436V3.53965H97.9878V4.98714H94.436V6.96983H98.2919V8.41732H92.6804Z" fill="black"/>
<path d="M100.927 8.41732V0.113528H104.204C104.833 0.113528 105.37 0.233814 105.813 0.474387C106.257 0.712255 106.594 1.04338 106.827 1.46776C107.062 1.88944 107.18 2.37599 107.18 2.92741C107.18 3.47883 107.061 3.96538 106.823 4.38706C106.585 4.80874 106.24 5.13716 105.789 5.37232C105.34 5.60749 104.797 5.72507 104.159 5.72507H102.071V4.31813H103.875C104.213 4.31813 104.491 4.26002 104.71 4.14379C104.932 4.02485 105.097 3.86132 105.205 3.65318C105.316 3.44234 105.371 3.20042 105.371 2.92741C105.371 2.6517 105.316 2.41113 105.205 2.20569C105.097 1.99756 104.932 1.83673 104.71 1.7232C104.489 1.60697 104.208 1.54885 103.867 1.54885H102.683V8.41732H100.927Z" fill="black"/>
</svg>
