<svg width="86" height="35" viewBox="0 0 86 35" fill="none" xmlns="http://www.w3.org/2000/svg">
<path d="M14.875 33.5429V30.9162C14.875 30.3882 14.855 29.8602 14.7948 29.0715L14.9352 29.0447L16.5594 33.5429H19.654L21.2848 29.0447L21.4185 29.0715C21.3516 29.8602 21.3383 30.3882 21.3383 30.9162V33.5429H25.3486V24.1856H20.3558L19.2262 26.9193C18.8318 27.8684 18.5444 28.6036 18.2036 29.7733H18.0632C17.7223 28.6036 17.4416 27.8751 17.0406 26.9193L15.891 24.1856H10.8647V33.5429H14.875Z" fill="white"/>
<path d="M35.6916 33.5429V31.1368H30.6387V29.9471H35.2839V27.7414H30.6387V26.5918H35.558V24.1856H26.4947V33.5429H35.6916Z" fill="white"/>
<path d="M40.3134 35V33.5429H44.7113V35H48.6547V30.8694H47.6188V24.1856H37.8203C37.6866 28.4432 37.6666 29.5327 37.0851 30.8694H36.3699V35H40.3134ZM41.0486 30.6823C41.4295 29.7933 41.5632 28.5836 41.6969 26.8591H43.4748V30.8694H41.1154L41.0486 30.6823Z" fill="white"/>
<path d="M53.8179 33.5429L55.5155 30.7959C55.8965 30.181 56.1906 29.6663 56.5047 28.9645L56.6384 29.0113C56.5649 29.7532 56.5315 30.3013 56.5315 30.8761V33.5429H60.6754V24.1856H56.4312L54.6533 27.0396C54.3325 27.5542 54.0986 27.9352 53.731 28.6704L53.5906 28.6237C53.6708 27.9219 53.7042 27.3805 53.7042 26.7923V24.1856H49.5603V33.5429H53.8179Z" fill="white"/>
<path d="M65.4108 33.5429L65.6715 32.5938H68.2982L68.5589 33.5429H72.8365L69.5414 24.1856H64.6422L61.3537 33.5429H65.4108ZM66.5537 29.0046C66.7275 28.2494 66.8211 27.7882 66.928 27.0596H67.0617C67.1686 27.7882 67.2555 28.2494 67.4293 28.9846L67.7702 30.4483H66.2195L66.5537 29.0046Z" fill="white"/>
<path d="M2.13882 18.9419L2.12545 9.79847C2.12545 8.02057 2.07198 6.21594 1.95167 3.87661L2.24576 3.86324L4.37121 18.9419H6.53677L8.74242 3.87661L9.02314 3.88998C8.8761 6.22931 8.82263 8.02057 8.82263 9.79847L8.7959 18.9419H11.0283V0.22725H7.64628L6.26941 8.47507C5.97533 10.8545 5.80155 12.6458 5.58767 15.4396H5.38715C5.17327 12.6458 4.98612 10.8545 4.69204 8.47507L3.3018 0.22725H0V18.9419H2.13882Z" fill="white"/>
<path d="M18.7109 18.9419V0.22725H16.4518V18.9419H18.7109Z" fill="white"/>
<path d="M29.4146 18.9419V17.0838H26.3936V0.22725H24.1344V18.9419H29.4146Z" fill="white"/>
<path d="M39.6104 18.9419V17.0838H36.5893V0.22725H34.3302V18.9419H39.6104Z" fill="white"/>
<path d="M46.7851 18.9419V0.22725H44.5259V18.9419H46.7851Z" fill="white"/>
<path d="M55.8713 19.1692C58.4112 19.1692 59.6677 17.6987 59.6677 14.7846V4.38458C59.6677 1.47044 58.4112 0 55.8713 0C53.3448 0 52.0883 1.47044 52.0883 4.38458V14.7846C52.0883 17.6987 53.3448 19.1692 55.8713 19.1692ZM55.8847 17.4046C54.8554 17.4046 54.3474 16.616 54.3474 14.9851V4.22417C54.3474 2.56658 54.8554 1.76453 55.8847 1.76453C56.914 1.76453 57.4086 2.56658 57.4086 4.22417V14.9851C57.4086 16.616 56.914 17.4046 55.8847 17.4046Z" fill="white"/>
<path d="M67.1632 18.9419L67.1498 10.7743C67.1498 8.86273 66.9894 5.90849 66.829 3.91671L67.1097 3.88998C67.3905 5.88175 67.5776 6.9779 67.8851 8.48844L70.211 18.9419H73.0717V0.22725H70.8794L70.8928 8.3815C70.8928 10.3599 71.0532 12.9532 71.2403 15.1455L70.9596 15.1589C70.719 13.4478 70.4917 12.1378 70.2645 10.9882L67.9252 0.22725H64.9709V18.9419H67.1632Z" fill="white"/>
<path d="M81.8104 19.1692C84.123 19.1692 85.3795 17.8591 85.3795 15.3728C85.3795 13.2874 84.4973 11.5363 83.2808 9.57122L82.0777 7.60618C80.8345 5.6144 80.4736 4.41132 80.4736 3.19486C80.4736 2.21903 80.9147 1.68432 81.6633 1.68432C82.5723 1.68432 83.0135 2.32597 83.0135 4.03702V6.0689L85.1122 5.66787V3.95682C85.1122 1.22982 83.9626 0 81.6901 0C79.5512 0 78.3482 1.18972 78.3482 3.50232C78.3348 5.28021 79.0433 6.77738 80.2597 8.78253L81.4495 10.7743C82.6525 12.7794 83.2006 14.1964 83.2006 15.6401C83.2006 16.8165 82.7194 17.4581 81.8638 17.4581C80.8479 17.4581 80.3533 16.7363 80.3533 14.7178V12.5121L78.1878 12.9265V14.7846C78.1878 17.8324 79.4978 19.1692 81.8104 19.1692Z" fill="white"/>
</svg>
