<svg width="22" height="22" viewBox="0 0 22 22" fill="none" xmlns="http://www.w3.org/2000/svg">
<circle cx="11" cy="11" r="11" fill="black"/>
<path d="M12.682 15H9.574V14.65C9.714 14.5753 9.85867 14.5147 10.008 14.468C10.1573 14.412 10.3207 14.3607 10.498 14.314V8.812L9.574 8.7V8.336C9.84467 8.224 10.1387 8.126 10.456 8.042C10.7733 7.958 11.0907 7.888 11.408 7.832H11.758V14.314C11.9447 14.3607 12.1127 14.412 12.262 14.468C12.4113 14.5147 12.5513 14.5753 12.682 14.65V15ZM10.232 5.62C10.232 5.368 10.3113 5.16733 10.47 5.018C10.638 4.86867 10.8573 4.794 11.128 4.794C11.3987 4.794 11.6133 4.86867 11.772 5.018C11.9307 5.16733 12.01 5.368 12.01 5.62C12.01 5.872 11.9307 6.07267 11.772 6.222C11.6133 6.362 11.3987 6.432 11.128 6.432C10.8573 6.432 10.638 6.362 10.47 6.222C10.3113 6.07267 10.232 5.872 10.232 5.62Z" fill="white"/>
</svg>
